HIERARCHY
ROOT Hips
{
	OFFSET 0.000000 0.000000 0.000000
	CHANNELS 6 Xposition Yposition Zposition Zrotation Yrotation Xrotation 
	JOINT LeftUpLeg_virtual
	{
		OFFSET 0.000000 0.000000 0.000000
		CHANNELS 3 Zrotation Yrotation Xrotation
		JOINT LeftUpLeg
		{
			OFFSET 8.479694 -4.795517 -0.379053
			CHANNELS 3 Zrotation Yrotation Xrotation
			JOINT LeftLeg
			{
				OFFSET 0.485052 -32.551468 0.112863
				CHANNELS 3 Zrotation Yrotation Xrotation
				JOINT LeftFoot
				{
					OFFSET 0.438033 -32.635670 -3.012641
					CHANNELS 3 Zrotation Yrotation Xrotation
					JOINT LeftToeBase
					{
						OFFSET 0.970169 -13.225353 11.864223
						CHANNELS 3 Zrotation Yrotation Xrotation
						End Site
						{
							OFFSET 0.000000 0.000000 0.000000
						}
					}
				}
			}
		}
	}
	JOINT RightUpLeg_virtual
	{
		OFFSET 0.000000 0.000000 0.000000
		CHANNELS 3 Zrotation Yrotation Xrotation
		JOINT RightUpLeg
		{
			OFFSET -8.479694 -4.795517 -0.379053
			CHANNELS 3 Zrotation Yrotation Xrotation
			JOINT RightLeg
			{
				OFFSET -0.484100 -32.551483 0.112903
				CHANNELS 3 Zrotation Yrotation Xrotation
				JOINT RightFoot
				{
					OFFSET -0.438985 -32.635651 -3.012681
					CHANNELS 3 Zrotation Yrotation Xrotation
					JOINT RightToeBase
					{
						OFFSET -0.970169 -13.225354 11.864223
						CHANNELS 3 Zrotation Yrotation Xrotation
						End Site
						{
							OFFSET 0.000000 0.000000 0.000000
						}
					}
				}
			}
		}
	}
	JOINT Spine_virtual
	{
		OFFSET 0.000000 0.000000 0.000000
		CHANNELS 3 Zrotation Yrotation Xrotation
		JOINT Spine
		{
			OFFSET 0.000000 7.722015 1.166203
			CHANNELS 3 Zrotation Yrotation Xrotation
			JOINT Spine1
			{
				OFFSET 0.000000 12.024086 0.248766
				CHANNELS 3 Zrotation Yrotation Xrotation
				JOINT Spine2
				{
					OFFSET -0.000000 11.503036 -0.491240
					CHANNELS 3 Zrotation Yrotation Xrotation
					JOINT Neck_virtual
					{
						OFFSET 0.000000 0.000000 0.000000
						CHANNELS 3 Zrotation Yrotation Xrotation
						JOINT Neck
						{
							OFFSET 0.000000 18.430687 -3.123054
							CHANNELS 3 Zrotation Yrotation Xrotation
							JOINT Head
							{
								OFFSET -0.000000 9.051071 1.034021
								CHANNELS 3 Zrotation Yrotation Xrotation
								End Site
								{
									OFFSET 0.000000 0.000000 0.000000
								}
							}
						}
					}
					JOINT LeftShoulder_virtual
					{
						OFFSET 0.000000 0.000000 0.000000
						CHANNELS 3 Zrotation Yrotation Xrotation
						JOINT LeftShoulder
						{
							OFFSET 6.197824 13.665230 -4.064723
							CHANNELS 3 Zrotation Yrotation Xrotation
							JOINT LeftArm
							{
								OFFSET 7.778132 -0.187073 -1.709282
								CHANNELS 3 Zrotation Yrotation Xrotation
								JOINT LeftForeArm
								{
									OFFSET 21.954697 0.000000 -2.041093
									CHANNELS 3 Zrotation Yrotation Xrotation
									JOINT LeftHand
									{
										OFFSET 22.992908 0.000000 -0.870901
										CHANNELS 3 Zrotation Yrotation Xrotation
										End Site
										{
											OFFSET 0.000000 0.000000 0.000000
										}
									}
								}
							}
						}
					}
					JOINT RightShoulder_virtual
					{
						OFFSET 0.000000 0.000000 0.000000
						CHANNELS 3 Zrotation Yrotation Xrotation
						JOINT RightShoulder
						{
							OFFSET -6.197824 13.665230 -4.064723
							CHANNELS 3 Zrotation Yrotation Xrotation
							JOINT RightArm
							{
								OFFSET -7.778132 -0.187073 -1.709282
								CHANNELS 3 Zrotation Yrotation Xrotation
								JOINT RightForeArm
								{
									OFFSET -21.954697 0.000000 -2.041093
									CHANNELS 3 Zrotation Yrotation Xrotation
									JOINT RightHand
									{
										OFFSET -22.992908 0.000000 -0.870901
										CHANNELS 3 Zrotation Yrotation Xrotation
										End Site
										{
											OFFSET 0.000000 0.000000 0.000000
										}
									}
								}
							}
						}
					}
				}
			}
		}
	}
}
MOTION
Frames: 11
Frame Time: 0.033333
-1.056461 81.010963 27.537951 179.916513 3.951222 -179.958286 -4.345325 -1.395504 10.841511 -1.842991 0.087556 -21.468992 9.358947 3.810696 29.109959 2.602815 -6.884858 -13.775841 0.000000 0.000000 0.000000 -1.197287 -1.128943 10.741529 -2.186408 -1.241546 -23.695460 -1.036780 3.651723 31.488087 8.870012 4.766689 -10.407093 0.000000 0.000000 0.000000 2.279845 1.398960 -1.171029 -4.980564 0.895894 -1.278845 0.456987 -2.705562 4.104302 0.008087 0.029030 -0.004861 0.340992 -1.778404 5.152866 -0.117405 1.932164 -4.562221 0.000000 0.000000 0.000000 1.851524 -1.055018 2.319278 -3.734114 4.839181 -5.851001 -3.304025 -12.551891 -49.760595 0.626991 -31.939208 -2.186528 0.000000 0.000000 0.000000 -1.982937 0.147741 1.739872 18.926674 -9.701068 -11.853588 0.809727 7.922960 -61.999403 1.262073 18.619364 2.418244 0.000000 0.000000 0.000000 
-1.020336 80.978714 27.505116 179.981645 3.971456 -179.976823 -4.272377 -1.451205 10.929698 -1.648517 -0.260235 -21.505634 9.544219 3.566803 29.346649 2.773745 -6.645818 -14.197978 0.000000 0.000000 0.000000 -1.156308 -1.099687 10.863287 -2.127000 -1.224197 -23.683927 -0.950395 3.708687 31.724890 8.998142 4.943215 -10.442572 0.000000 0.000000 0.000000 2.261969 1.435168 -1.121658 -4.881238 0.913427 -1.362496 0.421785 -2.678844 4.096760 -0.027879 0.032938 0.032845 0.353180 -1.731713 5.155991 -0.103228 1.872529 -4.507733 0.000000 0.000000 0.000000 1.872662 -1.038302 2.295230 -3.642708 4.835294 -5.742940 -3.223942 -12.564163 -49.881042 0.741499 -31.850067 -2.357537 0.000000 0.000000 0.000000 -2.001803 0.169581 1.691719 19.071966 -9.648691 -11.825392 0.618368 7.990127 -61.963606 1.274572 18.840923 2.414385 0.000000 0.000000 0.000000 
-0.990828 80.936752 27.407642 179.982479 4.176147 -179.978572 -4.315327 -1.306197 11.048377 -1.624817 -0.197977 -21.648440 9.565623 3.526445 29.524773 2.761115 -6.636883 -14.383762 0.000000 0.000000 0.000000 -1.174419 -0.973403 10.991543 -2.080118 -1.031495 -23.753865 -0.979500 3.769692 31.776328 8.965626 4.934870 -10.659637 0.000000 0.000000 0.000000 2.171161 1.489516 -1.129122 -4.832520 0.872912 -1.446304 0.469466 -2.672790 4.075396 0.014830 0.017150 0.016167 0.320640 -1.735628 5.202018 -0.043402 1.802376 -4.468088 0.000000 0.000000 0.000000 1.801649 -0.973440 2.284579 -3.525754 4.864320 -5.714691 -3.301594 -12.548917 -49.736454 0.755243 -31.452427 -2.369972 0.000000 0.000000 0.000000 -2.069130 0.281224 1.751872 19.287238 -9.468679 -11.855477 0.288058 8.260466 -62.076707 1.356090 19.013473 2.493721 0.000000 0.000000 0.000000 
-0.959886 80.902168 27.284527 179.954366 4.334290 -179.981195 -4.394323 -1.208324 11.159059 -1.597216 -0.118402 -21.731268 9.621372 3.437650 29.705773 2.773130 -6.584483 -14.541118 0.000000 0.000000 0.000000 -1.294546 -0.877149 11.097926 -1.974372 -0.942300 -23.807570 -0.992943 3.820723 31.732673 8.923693 4.901245 -10.829159 0.000000 0.000000 0.000000 2.046785 1.567097 -1.158412 -4.789497 0.811993 -1.521518 0.405435 -2.638461 4.088706 0.052574 0.017131 0.035457 0.353389 -1.688833 5.248401 0.010752 1.748085 -4.362231 0.000000 0.000000 0.000000 1.854509 -0.906802 2.335724 -3.421739 4.798648 -5.676354 -3.308871 -12.640717 -49.982375 0.678916 -30.997769 -2.289689 0.000000 0.000000 0.000000 -1.996086 0.277349 1.779160 19.613733 -9.359680 -11.732912 -0.096337 8.552937 -62.061107 1.382196 19.066512 2.621446 0.000000 0.000000 0.000000 
-0.937769 80.867455 27.155209 179.905202 4.518597 -179.950022 -4.512198 -1.238084 11.174592 -1.609874 0.029696 -21.762316 9.685480 3.386409 29.898518 2.799384 -6.535867 -14.734311 0.000000 0.000000 0.000000 -1.446983 -0.826432 11.158123 -1.865723 -0.855377 -23.755494 -0.972225 3.882676 31.735002 8.920683 4.887777 -10.958247 0.000000 0.000000 0.000000 1.892740 1.647529 -1.246792 -4.717715 0.745683 -1.602191 0.490243 -2.590352 4.119326 -0.001972 0.033531 0.043824 0.412733 -1.647211 5.291319 0.171605 1.605955 -4.266508 0.000000 0.000000 0.000000 1.879090 -0.923457 2.376659 -3.409369 4.666892 -5.668590 -3.434595 -12.589209 -49.991152 0.594645 -30.624116 -2.179947 0.000000 0.000000 0.000000 -1.953131 0.272433 1.828467 19.888206 -9.283177 -11.721766 -0.438185 8.835276 -61.995517 1.469484 19.137002 2.863744 0.000000 0.000000 0.000000 
-0.929281 80.835770 27.043547 179.986208 4.687182 -179.904724 -4.534525 -1.207813 11.083688 -1.566806 0.128778 -21.760481 9.749475 3.308428 30.111784 2.836820 -6.493646 -14.943563 0.000000 0.000000 0.000000 -1.510931 -0.704500 11.109774 -1.746001 -0.661808 -23.662116 -0.939301 3.861765 31.678520 8.902010 4.856953 -11.092476 0.000000 0.000000 0.000000 1.852158 1.677298 -1.294844 -4.551055 0.644463 -1.760297 0.562469 -2.587054 4.111628 0.036960 0.018436 0.003650 0.395048 -1.676322 5.399507 0.232761 1.524487 -4.087572 0.000000 0.000000 0.000000 1.871995 -0.886723 2.443440 -3.469712 4.609578 -5.669519 -3.670738 -12.425810 -49.987491 0.489020 -30.482287 -1.979051 0.000000 0.000000 0.000000 -1.931790 0.277438 1.990046 20.182564 -9.016730 -11.639725 -0.693177 9.003632 -61.882545 1.528063 19.162806 3.073148 0.000000 0.000000 0.000000 
-0.939653 80.808586 26.936287 179.906349 4.718794 -179.972124 -4.682098 -1.210498 11.063138 -1.567947 0.156773 -21.643094 9.812969 3.206960 30.323427 2.868190 -6.414903 -15.074429 0.000000 0.000000 0.000000 -1.696106 -0.723408 11.122769 -1.640682 -0.715732 -23.475427 -0.920326 3.930985 31.644557 8.953873 4.850219 -11.157409 0.000000 0.000000 0.000000 1.762964 1.660350 -1.308703 -4.416410 0.574940 -1.831851 0.556902 -2.562900 4.167433 0.007549 -0.005269 0.023621 0.454573 -1.537108 5.423251 0.319128 1.351242 -3.920447 0.000000 0.000000 0.000000 1.877076 -0.769202 2.477272 -3.540479 4.547172 -5.595699 -4.000881 -12.317069 -49.925722 0.421986 -30.673594 -1.845663 0.000000 0.000000 0.000000 -1.894081 0.413035 2.003043 20.469995 -8.983245 -11.553203 -0.889656 9.086410 -61.877347 1.579527 19.168641 3.322932 0.000000 0.000000 0.000000 
-0.982012 80.789909 26.818420 179.916704 4.929736 -179.933370 -4.746785 -1.084707 11.004704 -1.560857 0.239702 -21.635111 9.834245 3.189374 30.492591 2.869325 -6.379987 -15.205172 0.000000 0.000000 0.000000 -1.794285 -0.534881 11.047246 -1.564106 -0.690033 -23.333335 -0.934179 3.920736 31.609296 9.001771 4.825922 -11.232150 0.000000 0.000000 0.000000 1.742627 1.689604 -1.443313 -4.219515 0.629260 -1.938691 0.591057 -2.455329 4.173854 0.022623 0.055878 0.021337 0.430490 -1.493045 5.505383 0.336575 1.184672 -3.732390 0.000000 0.000000 0.000000 1.824655 -0.748376 2.585557 -3.676869 4.430458 -5.491770 -4.366058 -12.119632 -49.614679 0.379526 -30.994121 -1.573770 0.000000 0.000000 0.000000 -1.954734 0.435362 2.043884 20.557350 -8.954671 -11.288020 -0.835415 9.053727 -61.877505 1.612626 19.135033 3.503346 0.000000 0.000000 0.000000 
-1.042395 80.787491 26.688246 179.920693 4.803176 -179.941839 -4.822479 -1.263513 11.028190 -1.616192 0.482267 -21.601059 9.899055 3.013577 30.641315 2.856825 -6.343893 -15.295181 0.000000 0.000000 0.000000 -1.860357 -0.706627 11.043303 -1.574037 -0.616608 -23.178097 -0.931531 3.933053 31.567341 9.050641 4.779643 -11.216532 0.000000 0.000000 0.000000 1.758283 1.556644 -1.609193 -4.013893 0.636845 -1.933957 0.572384 -2.428929 4.203928 0.006574 0.009611 0.017817 0.438120 -1.391289 5.556669 0.314009 1.016116 -3.614415 0.000000 0.000000 0.000000 1.810584 -0.620422 2.620156 -3.746153 4.305869 -5.414717 -4.807882 -11.897229 -49.256275 0.324942 -31.436123 -1.277933 0.000000 0.000000 0.000000 -1.933542 0.531012 2.094553 20.679036 -8.772415 -11.048790 -0.808341 9.096285 -62.007558 1.676070 18.967374 3.688224 0.000000 0.000000 0.000000 
-1.126269 80.780556 26.549692 179.917715 4.711549 -179.985662 -4.883141 -1.338742 11.065264 -1.652903 0.522722 -21.600886 9.927044 2.970417 30.829654 2.814871 -6.294217 -15.354287 0.000000 0.000000 0.000000 -1.882673 -0.840950 11.049877 -1.637242 -0.638045 -23.077732 -0.931805 3.997968 31.641186 9.152945 4.764809 -11.236701 0.000000 0.000000 0.000000 1.738725 1.450283 -1.745490 -3.855041 0.715312 -1.921037 0.546804 -2.355242 4.202199 -0.022856 0.018377 0.029803 0.426623 -1.271838 5.581030 0.202440 0.885852 -3.540880 0.000000 0.000000 0.000000 1.824640 -0.600611 2.654709 -3.827448 4.111754 -5.307858 -5.143336 -11.798552 -48.992401 0.280141 -31.749697 -0.871058 0.000000 0.000000 0.000000 -1.948879 0.599276 2.053684 20.475237 -8.585756 -10.583027 -0.624044 8.900446 -62.311829 1.687283 18.843000 3.814152 0.000000 0.000000 0.000000 
-1.212349 80.770264 26.445513 -179.994609 4.621884 -179.969378 -4.850064 -1.329526 11.076044 -1.655375 0.515968 -21.625060 9.935469 3.003044 30.974512 2.691093 -6.298327 -15.424906 0.000000 0.000000 0.000000 -1.764198 -0.883631 11.018644 -1.735367 -0.637276 -23.054754 -0.935734 4.021948 31.758245 9.268287 4.737106 -11.277542 0.000000 0.000000 0.000000 1.774748 1.369672 -1.895436 -3.646182 0.776575 -1.854703 0.584993 -2.340369 4.202754 0.026938 0.023857 0.037655 0.336111 -1.335859 5.629521 -0.021805 0.839362 -3.520384 0.000000 0.000000 0.000000 1.740204 -0.572284 2.706780 -3.858795 3.895398 -5.206284 -5.468359 -11.684286 -48.977388 0.187367 -31.891560 -0.331706 0.000000 0.000000 0.000000 -2.056689 0.651999 2.168948 19.977987 -8.351500 -10.167555 -0.306192 8.665216 -62.531775 1.677858 18.846017 3.767390 0.000000 0.000000 0.000000 
